# xmcd
#
# Track frame offsets:
#	150
#	20477
#	38012
#	54506
#	103502
#	138110
#	172805
#	190533
#	215058
#	227390
#
# Disc length: 3189 seconds
#
# Revision: 0
# Processed by: cddbd v1.4PL0 Copyright (c) Steve Scherf et al.
# Submitted via: dBpowerAMP V4.0
#
DISCID=740c730a
DTITLE=Sprattattack - Live
DYEAR=1900
DGENRE=Blues
TTITLE0=Lend Me Your Ear
TTITLE1=Bring It On Home
TTITLE2=You Send Me
TTITLE3=Mr. Magie
TTITLE4=Life's Trilogy
TTITLE5=Breezin'
TTITLE6=I Gotta Move
TTITLE7=Grazin' In The Grass
TTITLE8=Hold On I'm Coming
TTITLE9=I Feel Good
EXTD=
EXTT0=
EXTT1=
EXTT2=
EXTT3=
EXTT4=
EXTT5=
EXTT6=
EXTT7=
EXTT8=
EXTT9=
PLAYORDER=
